<svg xmlns="http://www.w3.org/2000/svg" viewBox="0 0 960 540" role="img" aria-label="rBuilder dashboard preview">
  <rect width="960" height="540" fill="#0f1117"/>
  <text x="24" y="36" fill="#58a6ff" font-family="system-ui,sans-serif" font-size="20" font-weight="600">rBuilder Dashboard</text>
  <rect x="24" y="52" width="200" height="110" rx="8" fill="#161b22" stroke="#30363d"/>
  <text x="36" y="76" fill="#8b949e" font-size="12">Overview</text>
  <text x="36" y="100" fill="#e6edf3" font-size="11">Nodes 1,284</text>
  <text x="36" y="118" fill="#e6edf3" font-size="11">Communities 6</text>
  <rect x="240" y="52" width="200" height="110" rx="8" fill="#161b22" stroke="#30363d"/>
  <text x="252" y="76" fill="#8b949e" font-size="12">Complexity</text>
  <rect x="260" y="90" width="18" height="50" fill="#58a6ff"/>
  <rect x="284" y="105" width="18" height="35" fill="#58a6ff"/>
  <rect x="308" y="120" width="18" height="20" fill="#58a6ff"/>
  <rect x="456" y="52" width="200" height="110" rx="8" fill="#161b22" stroke="#30363d"/>
  <text x="468" y="76" fill="#8b949e" font-size="12">Communities</text>
  <circle cx="500" cy="115" r="22" fill="#bc8cff" opacity="0.8"/>
  <circle cx="560" cy="100" r="14" fill="#58a6ff" opacity="0.8"/>
  <circle cx="610" cy="125" r="10" fill="#3fb950" opacity="0.8"/>
  <rect x="24" y="180" width="912" height="160" rx="8" fill="#161b22" stroke="#30363d"/>
  <text x="36" y="204" fill="#8b949e" font-size="12">Critical Hotspots</text>
  <rect x="36" y="220" width="880" height="22" rx="4" fill="rgba(248,81,73,0.15)"/>
  <text x="48" y="235" fill="#f85149" font-size="11">central_router  risk 180</text>
  <rect x="36" y="248" width="880" height="22" rx="4" fill="rgba(210,153,34,0.12)"/>
  <text x="48" y="263" fill="#d29922" font-size="11">auth_verify  risk 80</text>
  <rect x="36" y="276" width="880" height="22" rx="4" fill="rgba(63,185,80,0.08)"/>
  <text x="48" y="291" fill="#3fb950" font-size="11">db_query  risk 45</text>
  <rect x="24" y="356" width="912" height="160" rx="8" fill="#161b22" stroke="#30363d"/>
  <text x="36" y="380" fill="#8b949e" font-size="12">Centrality (top connected nodes)</text>
  <rect x="120" y="400" width="280" height="14" rx="3" fill="#f85149"/>
  <rect x="120" y="422" width="220" height="14" rx="3" fill="#d29922"/>
  <rect x="120" y="444" width="160" height="14" rx="3" fill="#3fb950"/>
  <rect x="120" y="466" width="120" height="14" rx="3" fill="#3fb950"/>
  <text x="36" y="408" fill="#e6edf3" font-size="10">main</text>
  <text x="36" y="430" fill="#e6edf3" font-size="10">dispatch</text>
  <text x="36" y="452" fill="#e6edf3" font-size="10">parse</text>
</svg>
